<svg width="270" class="" height="36" viewBox="0 0 271 36" xmlns="http://www.w3.org/2000/svg"><title>My daily PLANNER</title>
    <desc>Printable to-do list template</desc><g fill-rule="evenodd" transform="translate(2 -3)"><path d="m135.650635 28.6520996v5.6304932c0 2.2735595.534057 2.5939941 3.158569 2.6855468v.6256104c-1.083374-.0610352-2.89917-.0915527-4.592895-.0915527-1.617432 0-3.128052.0305175-3.997803.0915527v-.6256104c2.120972-.0915527 2.532959-.4119873 2.532959-2.6855468v-15.5029297c0-2.2735596-.411987-2.5939942-2.532959-2.6855469v-.6256103c.869751.0610351 2.441406.0915527 3.814697.0915527 1.968384 0 3.967285-.0610352 4.714966-.0610352 5.0354 0 7.537842 2.532959 7.537842 6.1645508 0 3.0212403-1.754761 6.9885254-8.224488 6.9885254zm2.319336-12.5579834c-1.907349 0-2.319336.5340576-2.319336 2.6855469v9.2468262h2.105713c4.425048 0 5.401611-2.8381348 5.401611-6.0272217 0-3.9367676-1.403809-5.9051514-5.187988-5.9051514zm18.493652-.6256103v.6256103c-2.120972.0915527-2.532959.4119873-2.532959 2.6855469v15.5029297c0 2.2735595.411987 2.5939941 2.532959 2.5939941h2.288818c3.90625 0 4.684449-1.4953613 5.126954-5.8441162h.717163c-.061036.6561279-.091553 1.5563965-.091553 2.5634766 0 .7781982.061035 2.4108886.213623 3.9978027-2.120972-.0915527-5.065918-.0915527-7.156372-.0915527-1.876831 0-5.996704 0-9.063721.0915527v-.6256104c2.120972-.0915527 2.532959-.4119873 2.532959-2.6855468v-15.5029297c0-2.2735596-.411987-2.5939942-2.532959-2.6855469v-.6256103c.869751.0610351 2.380371.0915527 3.997803.0915527 1.434326 0 3.005981-.0305176 3.967285-.0915527zm19.195557-.1525879 7.614135 19.6533203c.625611 1.586914 1.510621 1.9683838 2.166748 1.9989013v.6256104c-.854492-.0610352-2.166748-.0915527-3.356933-.0915527-1.617432 0-3.112793.0305175-3.997803.0915527v-.6256104c1.51062-.0610351 2.212525-.2899169 2.212525-1.1596679 0-.366211-.122071-.8392334-.366211-1.4648438l-1.922608-5.1269531h-7.537842l-1.281738 3.3111572c-.427246 1.0833741-.62561 1.9226075-.62561 2.5634766 0 1.3580322.930786 1.8310547 2.716064 1.876831v.6256104c-1.190185-.0610352-2.502441-.0915527-3.601074-.0915527-1.052856 0-1.708984.0305175-2.334595.0915527v-.6256104c.808716-.1831054 1.739502-.8392334 2.456665-2.7160644l7.354737-18.9361572zm2.120971 13.2751465-3.494262-9.3231202-3.585816 9.3231202zm27.770996-13.1225586v.6256103c-2.120971.0915527-2.532959.7171631-2.532959 3.0059815v18.6462402h-.717163l-13.122558-20.2789307v16.494751c0 2.2888184.411987 2.9144287 2.838135 3.0059814v.6256104c-.747681-.0610352-2.120972-.0915527-3.189087-.0915527-1.052857 0-2.212525.0305175-2.89917.0915527v-.6256104c2.120971-.0915527 2.532959-.717163 2.532959-3.0059814v-15.1824951c0-2.2735596-.411988-2.5939942-2.532959-2.6855469v-.6256103c.686645.0610351 1.846313.0915527 2.89917.0915527.915527 0 1.75476-.0305176 2.441406-.0915527l11.032104 16.998291v-13.3666992c0-2.2888184-.396728-2.9144288-2.838134-3.0059815v-.6256103c.74768.0610351 2.120971.0915527 3.189087.0915527 1.052856 0 2.212524-.0305176 2.899169-.0915527zm22.064209 0v.6256103c-2.120971.0915527-2.532959.7171631-2.532959 3.0059815v18.6462402h-.717163l-13.122558-20.2789307v16.494751c0 2.2888184.411987 2.9144287 2.838135 3.0059814v.6256104c-.747681-.0610352-2.120972-.0915527-3.189087-.0915527-1.052857 0-2.212525.0305175-2.89917.0915527v-.6256104c2.120971-.0915527 2.532959-.717163 2.532959-3.0059814v-15.1824951c0-2.2735596-.411988-2.5939942-2.532959-2.6855469v-.6256103c.686645.0610351 1.846313.0915527 2.89917.0915527.915527 0 1.75476-.0305176 2.441406-.0915527l11.032104 16.998291v-13.3666992c0-2.2888184-.396728-2.9144288-2.838134-3.0059815v-.6256103c.74768.0610351 2.120971.0915527 3.189087.0915527 1.052856 0 2.212524-.0305176 2.899169-.0915527zm18.447876 18.1274414c0 .7781982.061036 2.4108886.213623 3.9978027-2.120971-.0915527-5.065917-.0915527-7.156372-.0915527-1.876831 0-5.996704 0-9.06372.0915527v-.6256104c2.120971-.0915527 2.532959-.4119873 2.532959-2.6855468v-15.5029297c0-2.2735596-.411988-2.5939942-2.532959-2.6855469v-.6256103c3.067016.0915527 7.186889.0915527 9.06372.0915527 1.907349 0 4.592896 0 6.530762-.0915527-.152588 1.4648437-.213623 2.9754638-.213623 3.6926269 0 .7476807.030518 1.4648438.091553 1.9378662h-.717163c-.411988-3.6926269-.88501-4.9133301-4.196167-4.9133301h-2.593994c-2.120972 0-2.532959.3204346-2.532959 2.5939942v7.3699951h2.075195c2.716064 0 2.655029-2.6245117 2.89917-4.119873h.717163c-.091553 1.3275146-.106812 2.2277832-.106812 2.9449462 0 .579834.015259 1.0375977.015259 1.4953614 0 1.0223388.030518 2.0599365.183106 4.4403076h-.717163c-.244141-1.9989014-.274659-4.1351318-2.990723-4.1351318h-2.075195v7.5073242c0 2.2735595.411987 2.5939941 2.532959 2.5939941h2.288818c3.90625 0 4.684448-1.4038086 5.126953-5.5389404h.717163c-.061035.5645752-.091553 1.3885498-.091553 2.2583008zm21.865845 2.0904541.473023.3509521c-.88501 1.2817383-1.663208 1.9989014-3.341675 1.9989014-1.571655 0-2.761841-.7171631-3.356934-3.3874512l-.686645-3.112793c-.595093-2.6550293-1.052857-4.4403076-3.524781-4.4403076h-2.975463v7.1868897c0 2.2735595.411987 2.5939941 2.532959 2.6855468v.6256104c-.961304-.0610352-2.532959-.0915527-3.967286-.0915527-1.617431 0-3.128051.0305175-3.997802.0915527v-.6256104c2.120971-.0915527 2.532959-.4119873 2.532959-2.6855468v-15.5029297c0-2.2735596-.411988-2.5939942-2.532959-2.6855469v-.6256103c.869751.0610351 2.441406.0915527 3.814697.0915527 1.968384 0 3.967285-.0610352 4.714966-.0610352 5.0354 0 7.537842 2.3803711 7.537842 5.4321289 0 2.1667481-1.358033 5.2795411-6.072999 6.0119629l.38147.0610352c2.7771.4577637 3.78418 1.5258789 4.379273 4.119873l.778198 3.189087c.38147 1.8157958.732422 2.5634765 1.602173 2.5634765.762939 0 1.12915-.4577637 1.708984-1.1901855zm-11.093139-19.5922852c-1.907349 0-2.319336.5340576-2.319336 2.6855469v7.6904297h2.105712c4.425049 0 5.401612-2.319336 5.401612-5.1879883 0-3.2806397-1.403809-5.1879883-5.187988-5.1879883z"></path><path d="m22.1496582 6.06799316h2.9136658c2.0729065 0 4.0008545-.0289917 5.4794311-.08697509l-.1449585.59432983c-2.0439148.0869751-2.4932861.39138794-3.0586242 2.55126953l-3.9138794 14.72778317c-.1594544.6088257-.2464295 1.0726929-.2464295 1.4205933 0 .8987427.5653382 1.0726929 2.0004273 1.1306763l-.1159668.5943298c-1.4640808-.0579834-3.3920288-.0869751-5.4649353-.0869751-2.1453858 0-4.2182923.0289917-5.3489685.0869751l.1159668-.5943298c2.0584106-.0869751 2.4932861-.391388 3.0586242-2.5512696l4.3052674-16.00341793-12.3214722 19.29397583h-.65231324l-2.63824462-17.33703614-3.45001221 13.11874394c-.13046265.478363-.21743775.9712219-.21743775 1.4205932 0 1.1161804.57983399 2.0004273 2.62374878 2.0584107l-.11596679.5943298c-.71029663-.0579834-2.49328614-.0869751-3.53698731-.0869751-1.02920532 0-2.15988159.0289917-2.81219482.0869751l.11596679-.5943298c2.0439148-.0869751 2.85568238-1.7829895 3.29055787-3.4790039l3.6819458-13.80004887c.15945434-.60882568.24642944-1.07269287.24642944-1.42059326 0-.89874268-.56533813-1.07269287-2.00042725-1.13067627l.15945435-.59432983c1.08718872.05798339 3.02963257.08697509 5.01556396.08697509.9712219 0 1.9569397-.0289917 2.7252197-.08697509l1.7250061 13.53912353zm17.8733826 5.10253904c1.5800476 0 2.2613525 1.1016846 2.2613525 2.8846741 0 3.5369873-2.6817322 9.059906-5.8563232 12.8288269-2.5222779 3.0006409-5.305481 4.8416138-7.9582215 5.4649353-.6233215.1449585-1.2756347.2319336-1.7395019.2319336-1.6090393 0-2.4642945-.7392883-2.4642945-1.9569397 0-1.159668.8842469-2.1743774 2.3773194-2.1743774 1.4495849 0 2.6672363.9277343 3.6384582 2.6237487 1.1306763-.5073547 2.2758484-1.2031555 3.4645081-2.2323608l-2.4208069-14.6987915c-.1739502-.9712219-.2609253-1.2756348-.6233215-1.2756348-.391388 0-.5943299.3044129-1.1886597 1.8699646l-.6233215 1.6670227h-.5653382l.7392884-2.1743774c.8407592-2.406311 2.1453857-3.0586243 3.8414001-3.0586243 1.8699646 0 3.087616.7827759 3.4934998 3.5369873l1.3046264 9.5092774c1.3916016-2.1163941 2.4497986-4.3052674 3.087616-6.1172486-1.8119812-1.0147094-3.087616-2.6527404-3.087616-4.4937133 0-1.4785767.8407593-2.4353028 2.319336-2.4353028zm26.3244629 11.0168457h.5653381l-.7392883 2.1743775c-.8552552 2.4932861-2.6672364 3.0586242-4.247284 3.0586242-1.246643 0-2.1598816-.3913879-2.6672363-1.1306762-.289917-.4203797-.4348755-.971222-.4348755-1.6670227 0-.391388.0434876-.8262635.1449585-1.3191224-1.2031555 2.7107239-2.6092529 4.1168213-5.0300598 4.1168213-2.0439148 0-3.8269043-1.246643-3.8269043-4.334259 0-4.334259 3.4790039-11.9155884 10.0601196-11.9155884 1.1016846 0 1.5800476.289917 1.8119812.7392884l1.2466431-4.71115117c.0869751-.31890869.1449585-.59432983.1449585-.82626342 0-.76828003-.5363464-1.13067627-2.0149231-1.13067627l.2029419-.62332154c3.2470703-.0289917 5.7113647-.44937133 8.0451965-1.21765136l-5.8128357 21.07696536c-.1014709.289917-.1449585.5073547-.1449585.6958007 0 .4203797.2464295.5508423.5073548.5508423.3479004 0 .9422302-.2029419 1.5655517-1.8699646zm-9.9731446 3.3920288c.7682801 0 2.2323609-1.6815185 3.6529541-6.2911987l.8987427-3.3920288.0144959-.0579834v.0144959l.8552551-3.2615662c-.1304627-.478363-.3479004-.7247925-.9422302-.7247925-1.7829895 0-5.1895142 5.783844-5.1895142 12.0170593 0 1.1306763.1449585 1.6960144.7102966 1.6960144zm27.1362305-3.3920288h.5653381l-.7392883 2.1743775c-.869751 2.4932861-2.6817322 3.0586242-4.2472839 3.0586242-1.2176514 0-2.0874024-.3623962-2.5802613-1.0437011-.3189087-.4493714-.4928588-1.0581971-.4928588-1.8264771 0-.1739502 0-.3334045.0144958-.5218506-1.0002136 2.5947571-2.6092529 3.3920288-4.5082092 3.3920288-2.4932862 0-3.6819458-1.3336181-3.6819458-3.7109375 0-5.7693481 5.3344726-12.5389099 9.5237732-12.5389099 1.0147094 0 1.7250061.4638672 1.8554687 1.7105103l.3768921-1.2611389c2.1598816-.0289917 3.7399292-.1739502 5.3634644-.4493714l-4.0008545 13.30719c-.101471.3044128-.1304627.5363464-.1304627.7247924 0 .391388.2029419.5218506.4783631.5218506.3623962 0 .956726-.2029419 1.5800476-1.8699646zm-9.4078064 3.2035828c.6958008 0 1.4640808-.7537842 2.4932861-3.8124085l2.319336-7.6828002c.0144958-.1594544.0289917-.3044129.0289917-.4348755 0-.5653382-.2029419-.8262635-.5653382-.8262635-1.6670227 0-4.9575805 5.8128357-4.9575805 11.1907959 0 1.1306763.1449585 1.5655518.6813049 1.5655518zm16.2353516-18.45321656c0-2.14538574 1.5510559-3.16009521 3.6239624-3.16009521 1.7250061 0 2.6382446.69580078 2.6382446 2.02941894 0 1.8699646-1.5945435 3.08761597-3.6529541 3.08761597-1.7105103 0-2.6092529-.68130493-2.6092529-1.9569397zm-3.9718628 15.36560056 2.7252197-8.190155c.1159668-.3044128.1594543-.5508423.1594543-.7392883 0-.3479004-.1594543-.5073548-.4203796-.5073548-.5943298 0-1.1016846.4493714-1.638031 1.8699646l-.6813049 1.8119812h-.5653382l.8262635-2.3193359c.8117675-2.217865 2.3773193-3.0586243 4.4357299-3.0586243 2.2613526 0 3.087616 1.2901306 3.087616 2.7397156 0 .4638672-.0869751.9567261-.2464294 1.4205933l-3.087616 9.1468811c-.1014709.3044128-.1449585.5363464-.1449585.7247924 0 .391388.2174377.5218506.5073547.5218506.3479004 0 .9422303-.2029419 1.5655518-1.8699646l.6233215-1.6670227h.5653382l-.7392884 2.1743775c-.8552551 2.4932861-2.6672363 3.0586242-4.2472839 3.0586242-1.9714355 0-3.1600952-.9132385-3.1600952-2.8121948 0-.6523132.1449585-1.4205932.4348755-2.3048401zm20.207214-18.90258786-6.262207 21.07696536c-.057983.2174377-.086975.4058838-.086975.5508423 0 .5218505.289917.6958007.565338.6958007.202942 0 .855255-.1159668 1.507569-1.8699646l.623321-1.6670227h.565338l-.739288 2.1743775c-.884247 2.5512695-2.8266906 3.0586242-4.2182922 3.0586242-1.927948 0-3.1311035-1.0147094-3.1311035-3.0151367 0-.6088257.1159668-1.3046264.3479004-2.1018982l4.5372013-15.10467527c.086975-.31890869.144958-.59432983.144958-.82626342 0-.76828003-.5363463-1.13067627-2.014923-1.13067627l.2029419-.62332154c3.2470701-.0289917 5.6098941-.44937133 7.9582211-1.21765136zm9.944153 7.76977536c1.580048 0 2.261353 1.1016846 2.261353 2.8846741 0 3.5369873-2.681732 9.059906-5.856324 12.8288269-2.522277 3.0006409-5.30548 4.8416138-7.958221 5.4649353-.623322.1449585-1.275635.2319336-1.739502.2319336-1.609039 0-2.464294-.7392883-2.464294-1.9569397 0-1.159668.884246-2.1743774 2.377319-2.1743774 1.449585 0 2.667236.9277343 3.638458 2.6237487 1.130676-.5073547 2.275849-1.2031555 3.464508-2.2323608l-2.420807-14.6987915c-.17395-.9712219-.260925-1.2756348-.623321-1.2756348-.391388 0-.59433.3044129-1.18866 1.8699646l-.623321 1.6670227h-.565338l.739288-2.1743774c.840759-2.406311 2.145386-3.0586243 3.8414-3.0586243 1.869965 0 3.087616.7827759 3.4935 3.5369873l1.304626 9.5092774c1.391602-2.1163941 2.449799-4.3052674 3.087616-6.1172486-1.811981-1.0147094-3.087616-2.6527404-3.087616-4.4937133 0-1.4785767.840759-2.4353028 2.319336-2.4353028z"></path></g></svg>